<?xml version="1.0" encoding="UTF-8"?>
<svg width="50px" height="50px" viewBox="0 0 50 50" version="1.1" xmlns="http://www.w3.org/2000/svg" xmlns:xlink="http://www.w3.org/1999/xlink">
    <!-- Generator: sketchtool 52.6 (67491) - http://www.bohemiancoding.com/sketch -->
    <title>6DB3BED8-DFE9-4B6E-8214-A00DAE1F65F7</title>
    <desc>Created with sketchtool.</desc>
    <g id="Page-1" stroke="none" stroke-width="1" fill="none" fill-rule="evenodd">
        <g id="U-A-Main-Documents" transform="translate(-20.000000, -15.000000)" fill="#4F7082" fill-rule="nonzero">
            <g id="Menu">
                <g id="Logo-Sign" transform="translate(20.000000, 15.000000)">
                    <path d="M25.4347297,41.3673649 C25.2063514,41.7842568 24.5678378,41.7842568 24.3387838,41.3646622 C20.3245946,34.0133108 13.5117568,28.6538514 12.0664865,21.9815541 C12.0583784,21.9470946 12.0516216,21.9133108 12.0435135,21.8788514 C11.9671622,21.5173649 11.9083784,21.150473 11.8658108,20.7781757 C11.8583784,20.7166892 11.8543243,20.6552027 11.8475676,20.5937162 C11.8117568,20.2180405 11.7867568,19.8396622 11.7867568,19.4538514 C11.7867568,19.0369595 11.8117568,18.6268243 11.8543243,18.2193919 C11.8698649,18.0747973 11.8989189,17.9335811 11.9191892,17.7896622 C11.9556757,17.5322297 11.9928378,17.2747973 12.0448649,17.0220946 C12.0827027,16.8464189 12.1333784,16.6734459 12.1786486,16.4991216 C12.2340541,16.2862838 12.2881081,16.0727703 12.3556757,15.8646622 C12.4158108,15.675473 12.4881081,15.4903378 12.5583784,15.304527 C12.627973,15.1193919 12.6975676,14.9342568 12.7759459,14.7538514 C12.8631081,14.5558784 12.9583784,14.3619595 13.055,14.1687162 C13.1354054,14.0112838 13.2144595,13.8538514 13.3002703,13.700473 C13.4171622,13.4923649 13.5428378,13.2869595 13.6718919,13.0849324 C13.7516216,12.9592568 13.832027,12.8356081 13.9158108,12.7139865 C14.0705405,12.4910135 14.2340541,12.2727703 14.4043243,12.0585811 C14.4739189,11.9700676 14.5448649,11.8835811 14.6164865,11.7970946 C14.8158108,11.5599324 15.0239189,11.3281757 15.2435135,11.1038514 C15.2698649,11.0761486 15.2921622,11.0464189 15.3198649,11.0193919 C16.5935135,9.78493243 18.6239189,9.73087838 19.9218919,10.8808784 C20.9563514,11.7964189 21.202973,13.1950676 20.6644595,14.3552027 C20.5191892,14.6666892 20.33,14.9646622 20.0685135,15.2268243 C18.9286486,16.3747973 18.3002703,17.8747973 18.3002703,19.450473 C18.3002703,22.8558784 21.2340541,25.6268243 24.8421622,25.6268243 C28.4495946,25.6268243 31.3833784,22.8558784 31.3833784,19.450473 C31.3833784,17.8747973 30.7556757,16.375473 29.6144595,15.2275 C29.3259459,14.9369595 29.1158108,14.6052027 28.9685135,14.2558784 C28.4908108,13.1166892 28.7590541,11.7707432 29.7631081,10.8815541 C31.0543243,9.73628378 33.0705405,9.78695946 34.307027,10.9720946 C34.5239189,11.179527 34.6644595,11.3491216 34.8124324,11.5146622 C34.9002703,11.6133108 34.9935135,11.7085811 35.077973,11.8099324 C35.6408108,12.479527 36.1259459,13.1970946 36.5252703,13.9525 C36.7185135,14.3214189 36.8732432,14.6619595 37.0178378,15.0079054 C37.1408108,15.3065541 37.2509459,15.6099324 37.3482432,15.9166892 C37.3597297,15.9538514 37.3739189,15.9896622 37.3854054,16.0268243 C37.9637838,17.8410135 38.1360811,19.8018243 37.7759459,21.7950676 C36.4847297,28.9538514 29.5131081,33.9342568 25.4347297,41.3673649 Z" id="Fill-1-path"></path>
                </g>
            </g>
        </g>
    </g>
</svg>